{
    "asset" : {
        "generator" : "Khronos glTF Blender I/O v1.7.33",
        "version" : "2.0"
    },
    "scene" : 0,
    "scenes" : [
        {
            "name" : "Scene",
            "nodes" : [
                0
            ]
        }
    ],
    "nodes" : [
        {
            "mesh" : 0,
            "name" : "StaticMesh_VirchLogo"
        }
    ],
    "materials" : [
        {
            "doubleSided" : true,
            "name" : "Material_VirchLogo",
            "pbrMetallicRoughness" : {
                "baseColorFactor" : [
                    0.800000011920929,
                    0.800000011920929,
                    0.800000011920929,
                    1
                ],
                "metallicFactor" : 0,
                "roughnessFactor" : 0.5
            }
        }
    ],
    "meshes" : [
        {
            "name" : "VertexGroup_VirchLogo",
            "primitives" : [
                {
                    "attributes" : {
                        "POSITION" : 0,
                        "NORMAL" : 1,
                        "TEXCOORD_0" : 2
                    },
                    "indices" : 3,
                    "material" : 0
                }
            ]
        }
    ],
    "accessors" : [
        {
            "bufferView" : 0,
            "componentType" : 5126,
            "count" : 934,
            "max" : [
                2.4668264389038086,
                2.177295684814453,
                0.213888019323349
            ],
            "min" : [
                -2.4668264389038086,
                -2.1709418296813965,
                -0.213888019323349
            ],
            "type" : "VEC3"
        },
        {
            "bufferView" : 1,
            "componentType" : 5126,
            "count" : 934,
            "type" : "VEC3"
        },
        {
            "bufferView" : 2,
            "componentType" : 5126,
            "count" : 934,
            "type" : "VEC2"
        },
        {
            "bufferView" : 3,
            "componentType" : 5123,
            "count" : 4320,
            "type" : "SCALAR"
        }
    ],
    "bufferViews" : [
        {
            "buffer" : 0,
            "byteLength" : 11208,
            "byteOffset" : 0
        },
        {
            "buffer" : 0,
            "byteLength" : 11208,
            "byteOffset" : 11208
        },
        {
            "buffer" : 0,
            "byteLength" : 7472,
            "byteOffset" : 22416
        },
        {
            "buffer" : 0,
            "byteLength" : 8640,
            "byteOffset" : 29888
        }
    ],
    "buffers" : [
        {
            "byteLength" : 38528,
            "uri" : "virch-logo.bin"
        }
    ]
}
