<?xml version="1.0" encoding="utf-8"?>
<!-- Generator: Adobe Illustrator 26.3.1, SVG Export Plug-In . SVG Version: 6.00 Build 0)  -->
<svg version="1.1" id="Layer_1" xmlns="http://www.w3.org/2000/svg" xmlns:xlink="http://www.w3.org/1999/xlink" x="0px" y="0px"
	 viewBox="0 0 700 700" style="enable-background:new 0 0 700 700;" xml:space="preserve">
<style type="text/css">
	.st0{fill:#FFFFFF;}
</style>
<g>
	<path class="st0" d="M518.8,534.7L518.8,534.7c-4.4,4.4-11.5,4.4-15.9,0L165.3,197.1c-4.4-4.4-4.4-11.5,0-15.9l0,0
		c4.4-4.4,11.5-4.4,15.9,0l337.6,337.6C523.2,523.2,523.2,530.3,518.8,534.7z"/>
	<g>
		<path class="st0" d="M464.2,432.4c12.8-20.6,20.2-44.9,20.2-71v-22.5c0.1-5.9-5.3-11.4-11.2-11.4s-11.3,5.4-11.2,11.4v22.5
			c0,19.9-5.1,38.6-14.1,54.7L464.2,432.4z"/>
		<path class="st0" d="M426.8,395c4.6-10.4,7.2-21.8,7.2-33.8V226.8c0-46.3-37.7-84-84-84s-84,37.7-84,84v7.4L426.8,395z"/>
		<path class="st0" d="M350,445.2c26,0,49.3-11.9,64.7-30.5L266,266v95.2C266,407.5,303.7,445.2,350,445.2z"/>
		<path class="st0" d="M450.6,450.6l-15.7-15.7c-20.5,23.7-50.8,38.6-84.8,38.6c-62.2,0-112-49.8-112-112v-22.5
			c0.1-5.9-5.2-11.3-11-11.4c-6-0.1-11.5,5.4-11.4,11.4v22.5c0,70.5,54.2,128.2,123.2,133.9v39.6H294c-6.2,0-11.2,5-11.2,11.2
			s5,11.2,11.2,11.2h112c6.2,0,11.2-5,11.2-11.2s-5-11.1-11.2-11.2h-44.8v-39.6C396.7,492.4,428.3,475.7,450.6,450.6z"/>
	</g>
</g>
</svg>
