<?xml version="1.0" encoding="utf-8"?>
<!-- Generator: Adobe Illustrator 26.3.1, SVG Export Plug-In . SVG Version: 6.00 Build 0)  -->
<svg version="1.1" id="Layer_1" xmlns="http://www.w3.org/2000/svg" xmlns:xlink="http://www.w3.org/1999/xlink" x="0px" y="0px"
	 viewBox="0 0 700 700" style="enable-background:new 0 0 700 700;" xml:space="preserve">
<style type="text/css">
	.st0{fill:#FFFFFF;}
</style>
<path class="st0" d="M350,142.8c-46.3,0-84,37.7-84,84v134.4c0,46.3,37.7,84,84,84s84-37.7,84-84V226.8
	C434,180.5,396.3,142.8,350,142.8z M227,327.5c-6-0.1-11.5,5.4-11.4,11.4v22.5c0,70.5,54.2,128.2,123.2,133.9v39.6H294
	c-6.2,0-11.2,5-11.2,11.2s5,11.2,11.2,11.2h112c6.2,0,11.2-5,11.2-11.2s-5-11.1-11.2-11.2h-44.8v-39.6
	c69-5.7,123.2-63.4,123.2-133.9v-22.5c0.1-5.9-5.3-11.4-11.2-11.4s-11.3,5.4-11.2,11.4v22.5c0,62.2-49.8,112-112,112
	s-112-49.8-112-112v-22.5C238.1,333,232.8,327.6,227,327.5L227,327.5z"/>
</svg>
