<?xml version="1.0" encoding="utf-8"?>
<!-- Generator: Adobe Illustrator 25.4.1, SVG Export Plug-In . SVG Version: 6.00 Build 0)  -->
<svg version="1.1" id="Layer_1" xmlns="http://www.w3.org/2000/svg" xmlns:xlink="http://www.w3.org/1999/xlink" x="0px" y="0px"
	 viewBox="0 0 700 700" style="enable-background:new 0 0 700 700;" xml:space="preserve">
<style type="text/css">
	.st0{fill-rule:evenodd;clip-rule:evenodd;fill:#FFFFFF;}
</style>
<path class="st0" d="M90.3,440.3C40.4,440.3,0,399.9,0,350c0-49.9,40.4-90.3,90.3-90.3c49.9,0,90.3,40.4,90.3,90.3
	C180.6,399.9,140.2,440.3,90.3,440.3z M609.7,440.3c-49.9,0-90.3-40.4-90.3-90.3c0-49.9,40.4-90.3,90.3-90.3
	c49.9,0,90.3,40.4,90.3,90.3C700,399.9,659.6,440.3,609.7,440.3z M350,440.3c-49.9,0-90.3-40.4-90.3-90.3
	c0-49.9,40.4-90.3,90.3-90.3s90.3,40.4,90.3,90.3C440.3,399.9,399.9,440.3,350,440.3z"/>
</svg>
