<?xml version="1.0" encoding="utf-8"?>
<!-- Generator: Adobe Illustrator 25.4.1, SVG Export Plug-In . SVG Version: 6.00 Build 0)  -->
<svg version="1.1" id="Layer_1" xmlns="http://www.w3.org/2000/svg" xmlns:xlink="http://www.w3.org/1999/xlink" x="0px" y="0px"
	 viewBox="0 0 450 450" style="enable-background:new 0 0 450 450;" xml:space="preserve">
<style type="text/css">
	.st0{fill:#FFFFFF;}
</style>
<path class="st0" d="M417.7,216.3L268.2,98.1c-2.8-2.2-11.2,0-11.2,5.6v56c0,2.2-3.4,5-5.6,5.6c-175.8,33-212.2,140-220.6,182
	c-1.1,4.5,4.5,7.3,7.8,3.9c62.7-73.4,188.2-70,212.8-68.3c2.2,0,5.6,3.4,5.6,5.6v56c0,3.9,5.6,11.2,11.2,5.6l149.5-126.6
	C420,221.9,420,218.5,417.7,216.3L417.7,216.3z"/>
</svg>
