<?xml version="1.0" encoding="utf-8"?>
<!-- Generator: Adobe Illustrator 25.4.1, SVG Export Plug-In . SVG Version: 6.00 Build 0)  -->
<svg version="1.1" id="Layer_1" xmlns="http://www.w3.org/2000/svg" xmlns:xlink="http://www.w3.org/1999/xlink" x="0px" y="0px"
	 viewBox="0 0 700 700" style="enable-background:new 0 0 700 700;" xml:space="preserve">
<style type="text/css">
	.st0{fill:#FFFFFF;}
</style>
<path class="st0" d="M345,170.2h10c5.5,0,9.9,5.5,9.9,9.9v339.8c0,5.5-4.4,9.9-9.9,9.9h-10c-5.5,0-9.9-5.5-9.9-9.9V180.1
	C335.1,174.6,339.6,170.2,345,170.2L345,170.2z"/>
<path class="st0" d="M441.8,232.4h10c5.5,0,9.9,5.5,9.9,9.9v215.3c0,5.5-4.4,9.9-9.9,9.9h-10c-5.5,0-9.9-5.5-9.9-9.9V242.3
	C431.9,236.8,436.3,232.4,441.8,232.4z"/>
<path class="st0" d="M528.7,311.5c0-5.5,4.4-9.9,9.9-9.9h10h0c2.6,0,5.2,1,7,2.9c1.9,1.9,2.9,4.4,2.9,7v76.9c0,5.5-4.4,9.9-9.9,9.9
	h-10c-5.5,0-9.9-4.4-9.9-9.9V311.5z"/>
<path class="st0" d="M248.2,232.4h10c5.5,0,9.9,5.5,9.9,9.9v215.3c0,5.5-4.4,9.9-9.9,9.9h-10c-5.5,0-9.9-5.5-9.9-9.9V242.3
	C238.3,236.8,242.7,232.4,248.2,232.4L248.2,232.4z"/>
<path class="st0" d="M151.3,305h10c5.5,0,9.9,5.5,9.9,9.9V385c0,5.5-4.4,9.9-9.9,9.9h-10c-5.5,0-9.9-5.5-9.9-9.9V315
	C141.4,309.5,145.8,305,151.3,305L151.3,305z"/>
</svg>
